<?xml version="1.0" standalone="no"?>
<!DOCTYPE svg PUBLIC "-//W3C//DTD SVG 20010904//EN"
 "http://www.w3.org/TR/2001/REC-SVG-20010904/DTD/svg10.dtd">
<svg version="1.0" xmlns="http://www.w3.org/2000/svg"
 width="512.000000pt" height="512.000000pt" viewBox="0 0 512.000000 512.000000"
 preserveAspectRatio="xMidYMid meet">

<g transform="translate(0.000000,512.000000) scale(0.100000,-0.100000)"
fill="#000000" stroke="none">
<path d="M2238 5095 c-934 -128 -1704 -726 -2053 -1596 -121 -299 -175 -592
-175 -939 0 -347 54 -640 175 -939 357 -890 1166 -1503 2113 -1602 167 -17
525 -7 675 20 151 27 286 61 417 106 58 20 112 39 121 42 9 2 52 -16 95 -41
178 -105 326 -141 544 -133 175 6 261 26 405 97 195 95 358 258 455 455 70
143 91 230 97 405 8 218 -28 366 -133 544 l-46 79 46 136 c54 161 79 258 107
418 27 150 37 507 20 675 -61 585 -321 1130 -740 1547 -403 403 -911 650
-1488 726 -141 19 -498 18 -635 0z m627 -181 c491 -58 974 -291 1341 -647 404
-390 646 -880 714 -1442 16 -133 14 -424 -5 -572 -17 -127 -79 -396 -109 -467
l-16 -38 -27 21 c-183 141 -348 209 -553 231 -293 30 -588 -77 -801 -289 -212
-213 -319 -508 -289 -801 22 -205 90 -370 231 -553 l21 -27 -38 -16 c-72 -30
-340 -92 -468 -109 -228 -29 -518 -21 -741 21 -1005 186 -1790 1015 -1920
2029 -22 170 -22 440 0 610 97 753 565 1431 1235 1788 445 237 907 322 1425
261z m1455 -3115 c301 -77 545 -337 600 -639 14 -79 15 -236 1 -308 -62 -317
-322 -583 -634 -648 -92 -20 -252 -20 -343 -1 -301 64 -544 298 -625 602 -29
111 -29 288 0 400 116 443 560 706 1001 594z"/>
<path d="M2365 3756 c-37 -17 -80 -62 -94 -99 -7 -19 -11 -233 -11 -641 l0
-613 -132 -5 c-116 -4 -145 -9 -228 -37 -124 -42 -192 -82 -266 -156 -142
-140 -188 -343 -121 -528 53 -145 161 -242 332 -299 94 -31 314 -33 415 -4
251 73 449 238 532 445 23 56 23 60 28 646 l5 589 45 8 c55 10 135 -4 192 -33
62 -32 147 -124 190 -204 42 -80 77 -117 130 -139 102 -43 219 17 249 127 17
61 -10 162 -79 300 -74 148 -154 258 -277 381 -148 150 -297 224 -525 261
-119 19 -343 20 -385 1z m368 -181 c107 -19 227 -62 298 -107 110 -70 280
-272 354 -419 40 -78 79 -189 70 -198 -8 -7 -18 8 -65 91 -19 35 -69 97 -111
140 -59 60 -93 85 -155 115 -78 38 -80 38 -204 38 -105 0 -136 -4 -192 -23
-37 -13 -71 -29 -75 -35 -5 -7 -10 -298 -13 -647 l-5 -635 -24 -50 c-14 -27
-59 -84 -100 -126 -86 -87 -194 -146 -316 -175 -100 -23 -262 -16 -330 14
-112 51 -160 103 -191 208 -44 153 37 312 200 393 139 68 322 83 460 37 60
-21 81 -24 92 -15 12 10 14 126 14 710 l0 699 104 0 c57 0 142 -7 189 -15z"/>
<path d="M4049 1514 c-23 -25 -24 -30 -27 -219 l-4 -193 -193 -4 c-189 -3
-194 -4 -219 -27 -35 -33 -36 -92 -1 -126 24 -25 25 -25 220 -25 l195 0 0
-180 c0 -192 9 -238 48 -259 31 -17 77 -13 103 8 23 19 24 24 29 223 l5 203
203 5 c199 5 204 6 223 29 21 26 25 72 8 103 -21 39 -67 48 -259 48 l-180 0 0
195 c0 195 0 196 -25 220 -34 35 -93 34 -126 -1z"/>
</g>
</svg>
