<?xml version="1.0" standalone="no"?>
<!DOCTYPE svg PUBLIC "-//W3C//DTD SVG 20010904//EN"
 "http://www.w3.org/TR/2001/REC-SVG-20010904/DTD/svg10.dtd">
<svg version="1.0" xmlns="http://www.w3.org/2000/svg"
 width="512.000000pt" height="512.000000pt" viewBox="0 0 512.000000 512.000000"
 preserveAspectRatio="xMidYMid meet">

<g transform="translate(0.000000,512.000000) scale(0.100000,-0.100000)"
fill="#000000" stroke="none">
<path d="M2185 5114 c-167 -26 -282 -62 -418 -132 -205 -104 -383 -278 -493
-476 -31 -58 -40 -67 -58 -61 -78 23 -210 37 -306 32 -246 -13 -454 -108 -630
-286 -129 -130 -212 -278 -257 -457 -24 -95 -24 -333 0 -428 46 -182 128 -328
261 -462 100 -99 200 -166 317 -213 135 -54 199 -65 364 -65 174 1 257 19 391
83 l81 39 53 -82 c30 -44 95 -122 144 -171 174 -173 372 -279 620 -332 113
-25 351 -24 466 1 193 42 374 129 530 256 42 34 52 37 152 49 133 15 240 42
343 87 44 20 85 36 90 36 6 0 46 -10 90 -23 105 -29 342 -33 449 -6 186 47
324 125 461 262 137 137 216 276 262 461 24 95 24 333 0 428 -45 179 -128 327
-257 457 -164 167 -364 263 -591 285 -74 7 -74 7 -139 68 -85 81 -164 139
-264 192 -187 99 -334 136 -553 140 l-151 2 -69 55 c-154 124 -317 200 -513
243 -73 15 -314 27 -375 18z m377 -183 c177 -46 316 -119 448 -236 l75 -66
125 7 c202 10 362 -22 533 -107 111 -55 159 -90 267 -194 l95 -92 95 -6 c265
-17 488 -145 630 -364 89 -136 125 -259 125 -433 0 -226 -75 -408 -231 -564
-213 -213 -535 -290 -812 -195 -75 26 -102 24 -175 -12 -120 -61 -243 -94
-389 -104 -118 -9 -123 -10 -181 -64 -197 -177 -474 -274 -742 -258 -360 22
-688 229 -856 541 -61 113 -83 119 -198 52 -380 -221 -843 -113 -1082 252 -88
134 -124 258 -124 432 0 174 36 298 124 432 203 309 569 438 923 326 100 -32
110 -26 181 107 67 127 116 194 200 277 147 145 346 247 555 284 107 19 314
11 414 -15z"/>
<path d="M2760 4155 c-349 -72 -407 -86 -422 -105 -16 -20 -18 -49 -18 -336 0
-173 -2 -314 -5 -314 -4 0 -20 8 -38 17 -23 13 -56 17 -117 17 -100 0 -160
-24 -225 -89 -65 -65 -89 -125 -89 -225 -1 -78 2 -90 33 -148 38 -70 70 -100
145 -140 43 -22 64 -26 136 -26 72 0 93 4 136 26 75 39 107 70 145 140 l34 63
3 450 3 450 297 59 c163 33 307 61 320 64 l22 4 0 -251 c0 -138 -2 -251 -5
-251 -4 0 -20 8 -38 17 -23 13 -56 17 -117 17 -100 0 -160 -24 -225 -89 -65
-65 -89 -125 -89 -225 -1 -78 2 -90 33 -148 38 -70 70 -100 145 -140 43 -22
64 -26 136 -26 72 0 93 4 136 26 75 39 107 70 145 140 l34 63 3 498 3 497 -25
25 c-18 18 -35 25 -58 24 -18 -1 -215 -39 -438 -84z m263 -729 c103 -43 128
-177 48 -257 -112 -113 -296 -12 -267 146 18 94 128 150 219 111z m-800 -160
c103 -43 128 -177 48 -257 -65 -65 -157 -65 -222 0 -124 123 13 325 174 257z"/>
<path d="M2105 1895 l-25 -24 0 -296 0 -295 -175 0 c-173 0 -176 0 -200 -25
-30 -29 -33 -74 -7 -103 26 -30 837 -512 862 -512 25 0 836 482 863 512 25 29
22 74 -8 103 -24 25 -27 25 -200 25 l-175 0 0 295 0 296 -25 24 -24 25 -431 0
-431 0 -24 -25z m775 -375 l0 -240 -320 0 -320 0 0 240 0 240 320 0 320 0 0
-240z m175 -409 c-21 -18 -484 -291 -495 -291 -11 0 -474 273 -494 291 -6 5
214 9 494 9 280 0 500 -4 495 -9z"/>
<path d="M745 1095 l-25 -24 0 -511 0 -511 25 -24 24 -25 1791 0 1791 0 24 25
25 24 0 511 0 511 -25 24 c-24 25 -26 25 -215 25 -189 0 -191 0 -215 -25 l-25
-24 0 -296 0 -295 -1360 0 -1360 0 0 295 0 296 -25 24 c-24 25 -26 25 -215 25
-189 0 -191 0 -215 -25z m295 -430 l0 -296 25 -24 24 -25 1471 0 1471 0 24 25
25 24 0 296 0 295 80 0 80 0 0 -400 0 -400 -1680 0 -1680 0 0 400 0 400 80 0
80 0 0 -295z"/>
</g>
</svg>
